<?xml version="1.0" encoding="UTF-8" standalone="no"?>
<svg width="416px" height="53px" viewBox="0 0 416 53" version="1.1" xmlns="http://www.w3.org/2000/svg" xmlns:xlink="http://www.w3.org/1999/xlink">
    <g id="copy1" vector-effect="non-scaling-stroke" stroke="#646464" stroke-width=".34" fill="#646464">
        <path d="M52.71,21.185 L52.875,21.185 L52.875,3.8875 C52.875,2.375 53.1775,2.0175 56.065,1.6875 L56.065,1.55 L49.135,1.55 L49.135,1.6875 C52.1875,2.0175 52.545,2.2925 52.545,3.8875 L52.545,17.335 L52.49,17.335 L40.885,1.55 L35.935,1.55 L35.935,1.66 C38.7125,1.9625 39.2625,2.6225 39.2625,3.9425 L39.2625,18.38 C39.2625,19.9475 38.905,20.25 35.935,20.58 L35.935,20.7175 L43.0025,20.7175 L43.0025,20.58 C39.95,20.25 39.5925,19.975 39.5925,18.38 L39.5925,3.42 L39.6475,3.42 L52.71,21.185 Z M62.72,21.02 C65.8,21.02 68.825,18.27 68.825,14.4475 C68.825,10.5975 65.9375,7.9575 62.7475,7.9575 C59.6675,7.9575 56.6425,10.7075 56.6425,14.53 C56.6425,18.38 59.53,21.02 62.72,21.02 L62.72,21.02 Z M62.8575,20.8 C60.52,20.8 58.705,19.0125 58.705,14.475 C58.705,9.9375 60.3,8.1775 62.61,8.1775 C64.9475,8.1775 66.7625,9.965 66.7625,14.5025 C66.7625,19.04 65.1675,20.8 62.8575,20.8 L62.8575,20.8 Z M75.0675,21.02 C76.58,21.02 77.625,20.085 78.56,18.38 L78.4225,18.2975 C77.515,19.7275 76.8,20.305 75.8925,20.305 C74.7375,20.305 73.995,19.3975 73.995,17.7475 L73.995,8.5625 L78.12,8.5625 L78.12,8.26 L73.995,8.26 L73.995,3.6125 L72.125,4.52 L72.125,8.205 L69.5675,8.315 L69.5675,8.5625 L72.125,8.5625 L72.125,17.6375 C72.125,19.9475 73.3625,21.02 75.0675,21.02 L75.0675,21.02 Z M91.1,21.02 C93.41,21.02 95.0875,19.5075 96.2425,17.72 L96.05,17.5825 C94.9225,19.15 93.52,20.3875 91.595,20.3875 C89.01,20.3875 87.2775,18.1875 87.2775,14.5575 L87.2775,14.53 C87.2775,14.2 87.2775,13.8975 87.305,13.5675 L96.215,13.5675 C96.38,10.57 94.51,7.9575 91.1825,7.9575 C87.8825,7.9575 85.2975,11.175 85.2975,14.7225 C85.2975,18.545 87.8275,21.02 91.1,21.02 L91.1,21.02 Z M91.1275,8.205 C93.5475,8.205 94.4,10.35 94.29,13.265 L87.3325,13.265 C87.6075,10.075 88.9825,8.205 91.1275,8.205 L91.1275,8.205 Z M103.035,21.1575 L103.1725,21.1575 L107.545,10.8175 C108.425,8.755 108.535,8.6175 109.9925,8.3975 L109.9925,8.26 L105.95,8.26 L105.95,8.37 C107.16,8.535 107.6275,8.81 107.6275,9.415 C107.6275,9.7175 107.49,10.1025 107.2975,10.5975 L103.8875,18.7925 L103.8325,18.7925 L100.4775,10.1025 C100.34,9.7725 100.2575,9.4425 100.2575,9.2775 C100.2575,8.7 100.78,8.4525 102.2375,8.37 L102.2375,8.26 L96.1325,8.26 L96.1325,8.3975 C97.7825,8.5075 98.03,8.865 98.6075,10.295 L103.035,21.1575 Z M116.905,21.02 C119.215,21.02 120.8925,19.5075 122.0475,17.72 L121.855,17.5825 C120.7275,19.15 119.325,20.3875 117.4,20.3875 C114.815,20.3875 113.0825,18.1875 113.0825,14.5575 L113.0825,14.53 C113.0825,14.2 113.0825,13.8975 113.11,13.5675 L122.02,13.5675 C122.185,10.57 120.315,7.9575 116.9875,7.9575 C113.6875,7.9575 111.1025,11.175 111.1025,14.7225 C111.1025,18.545 113.6325,21.02 116.905,21.02 L116.905,21.02 Z M116.9325,8.205 C119.3525,8.205 120.205,10.35 120.095,13.265 L113.1375,13.265 C113.4125,10.075 114.7875,8.205 116.9325,8.205 L116.9325,8.205 Z M123.3675,20.7175 L129.995,20.7175 L129.995,20.58 C128.015,20.5525 127.465,20.415 127.465,19.48 L127.465,11.8625 C128.4,9.965 129.6375,8.7275 130.8475,8.5625 C130.545,8.9475 130.435,9.25 130.435,9.69 C130.435,10.405 130.9575,10.9275 131.755,10.9275 C132.415,10.9275 132.9925,10.295 132.9925,9.525 C132.9925,8.645 132.415,7.985 131.26,7.985 C129.7475,7.985 128.125,9.7725 127.4375,11.4775 L127.4375,8.095 L123.3675,8.26 L123.3675,8.3975 C125.375,8.5625 125.595,8.81 125.595,9.6625 L125.595,19.48 C125.595,20.415 124.9625,20.5525 123.3675,20.58 L123.3675,20.7175 Z M140.4725,20.5525 L140.17,21.295 C138.7675,24.8975 137.6125,25.6125 136.8425,25.6675 C137.1175,25.31 137.255,24.925 137.255,24.485 C137.255,23.77 136.7325,23.22 136.0725,23.22 C135.2475,23.22 134.8625,23.8525 134.8625,24.54 C134.8625,25.31 135.495,26.0525 136.485,26.0525 C137.8325,26.0525 138.96,25.2 140.445,21.515 L144.7625,10.8175 C145.5875,8.755 145.725,8.6175 147.1825,8.3975 L147.1825,8.26 L143.14,8.26 L143.14,8.37 C144.955,8.6175 145.0925,9.14 144.515,10.5975 L141.38,18.435 L137.7775,10.1025 C137.2825,8.9475 137.4475,8.48 139.4825,8.37 L139.4825,8.26 L133.3775,8.26 L133.3775,8.3975 C135.0275,8.5075 135.275,8.865 135.9075,10.295 L140.4725,20.5525 Z M153.4525,21.02 C156.5325,21.02 159.5575,18.27 159.5575,14.4475 C159.5575,10.5975 156.67,7.9575 153.48,7.9575 C150.4,7.9575 147.375,10.7075 147.375,14.53 C147.375,18.38 150.2625,21.02 153.4525,21.02 L153.4525,21.02 Z M153.59,20.8 C151.2525,20.8 149.4375,19.0125 149.4375,14.475 C149.4375,9.9375 151.0325,8.1775 153.3425,8.1775 C155.68,8.1775 157.495,9.965 157.495,14.5025 C157.495,19.04 155.9,20.8 153.59,20.8 L153.59,20.8 Z M161.905,20.7175 L167.955,20.7175 L167.955,20.58 C166.4975,20.525 166.0025,20.3875 166.0025,19.48 L166.0025,11.8625 C166.855,10.24 168.3125,9.0025 169.7425,9.0025 C171.5025,9.0025 172.1625,10.2675 172.1625,12.22 L172.1625,19.48 C172.1625,20.3875 171.6675,20.525 170.21,20.58 L170.21,20.7175 L176.095,20.7175 L176.095,20.58 C174.61,20.525 174.0325,20.3875 174.0325,19.48 L174.0325,11.78 C174.0325,9.3875 172.905,7.9575 170.705,7.9575 C168.78,7.9575 167.075,9.5525 165.975,11.3675 L165.975,8.095 L161.905,8.26 L161.905,8.3975 C163.9125,8.5625 164.1325,8.81 164.1325,9.6625 L164.1325,19.48 C164.1325,20.415 163.5,20.5525 161.905,20.58 L161.905,20.7175 Z M182.9425,21.02 C185.2525,21.02 186.93,19.5075 188.085,17.72 L187.8925,17.5825 C186.765,19.15 185.3625,20.3875 183.4375,20.3875 C180.8525,20.3875 179.12,18.1875 179.12,14.5575 L179.12,14.53 C179.12,14.2 179.12,13.8975 179.1475,13.5675 L188.0575,13.5675 C188.2225,10.57 186.3525,7.9575 183.025,7.9575 C179.725,7.9575 177.14,11.175 177.14,14.7225 C177.14,18.545 179.67,21.02 182.9425,21.02 L182.9425,21.02 Z M182.97,8.205 C185.39,8.205 186.2425,10.35 186.1325,13.265 L179.175,13.265 C179.45,10.075 180.825,8.205 182.97,8.205 L182.97,8.205 Z M201.395,21.02 C203.7325,21.02 205.135,19.5625 206.3175,18.0225 L206.125,17.885 C204.915,19.315 203.815,20.0575 202.3025,20.0575 C199.25,20.0575 197.5175,17.72 197.5175,14.365 C197.5175,10.2675 199.4975,8.205 201.67,8.205 C203.0725,8.205 203.8425,8.6175 204.31,9.085 C203.925,9.305 203.32,9.7175 203.32,10.515 C203.32,11.285 203.8975,11.78 204.585,11.78 C205.245,11.78 205.85,11.2575 205.85,10.46 C205.85,9.1675 204.145,7.9575 201.725,7.9575 C198.5075,7.9575 195.5375,10.9275 195.5375,14.6675 C195.5375,18.325 197.875,21.02 201.395,21.02 L201.395,21.02 Z M211.02,20.8825 C212.6425,20.8825 214.0725,20.0025 215.3375,18.5725 L215.365,18.5725 C215.365,20.25 216.19,20.8275 217.3725,20.8275 C218.1425,20.8275 218.9125,20.525 219.6,20.03 L219.545,19.9475 C217.895,20.635 217.2075,20.1675 217.2075,18.545 L217.2075,11.56 C217.2075,9.1125 215.4475,8.0675 212.78,8.0675 C210.4975,8.0675 208.435,9.1675 208.435,10.735 C208.435,11.4225 208.8475,12.0275 209.6725,12.0275 C210.36,12.0275 210.8825,11.5325 210.8825,10.735 C210.8825,10.13 210.4975,9.6075 209.7,9.47 C210.0575,8.92 210.965,8.3975 212.3675,8.3975 C214.43,8.3975 215.3375,9.25 215.3375,11.78 L215.3375,13.76 C213.275,14.0625 211.075,14.3925 209.5625,15.2175 C208.4075,15.85 207.7475,16.7575 207.7475,17.995 C207.7475,19.48 208.8475,20.8825 211.02,20.8825 L211.02,20.8825 Z M211.9275,20.03 C210.525,20.03 209.7,19.2325 209.7,17.6375 C209.7,15.4375 210.7175,14.64 215.3375,14.035 L215.3375,18.215 C214.43,19.315 213.3025,20.03 211.9275,20.03 L211.9275,20.03 Z M219.9025,20.7175 L225.9525,20.7175 L225.9525,20.58 C224.495,20.525 224,20.3875 224,19.48 L224,11.8625 C224.8525,10.24 226.31,9.0025 227.74,9.0025 C229.5,9.0025 230.16,10.2675 230.16,12.22 L230.16,19.48 C230.16,20.3875 229.665,20.525 228.2075,20.58 L228.2075,20.7175 L234.0925,20.7175 L234.0925,20.58 C232.6075,20.525 232.03,20.3875 232.03,19.48 L232.03,11.78 C232.03,9.3875 230.9025,7.9575 228.7025,7.9575 C226.7775,7.9575 225.0725,9.5525 223.9725,11.3675 L223.9725,8.095 L219.9025,8.26 L219.9025,8.3975 C221.91,8.5625 222.13,8.81 222.13,9.6625 L222.13,19.48 C222.13,20.415 221.4975,20.5525 219.9025,20.58 L219.9025,20.7175 Z M247.1375,25.86 C244.14,25.86 242.9025,25.0075 242.9025,23.1925 C242.9025,21.9825 243.3425,20.9375 245.02,20.415 L249.2825,20.415 C251.2075,20.415 252.0325,21.2675 252.0325,22.56 C252.0325,24.4575 249.6125,25.86 247.1375,25.86 L247.1375,25.86 Z M246.945,16.1525 C244.855,16.1525 243.8375,14.75 243.8375,12.22 C243.8375,9.69 244.6625,8.2875 246.725,8.2875 C248.8425,8.2875 249.805,9.965 249.805,12.22 C249.805,14.75 248.98,16.1525 246.945,16.1525 L246.945,16.1525 Z M246.835,8.0675 C244.635,8.0675 241.995,9.635 241.995,12.275 C241.995,14.1175 243.15,15.3 244.525,15.905 C242.985,16.5925 242.16,17.5825 242.16,18.4075 C242.16,19.3975 242.93,20.0025 244.635,20.2775 L244.635,20.3325 C242.4625,20.8825 241.28,21.9 241.28,23.22 C241.28,24.8975 243.7275,26.1075 246.78,26.1075 C250.74,26.1075 252.94,23.825 252.94,21.6525 C252.94,19.7 251.8675,18.5725 249.0625,18.5725 L245.35,18.5725 C243.8375,18.5725 243.1775,18.16 243.1775,17.5825 C243.1775,17.1425 243.6725,16.5375 244.7725,15.9875 C245.46,16.2625 246.175,16.3725 246.835,16.3725 C249.0075,16.3725 251.6475,14.8325 251.6475,12.165 C251.6475,10.6525 250.7675,9.5525 249.6675,8.8925 C250.1075,8.26 250.685,7.7375 251.3725,7.655 C251.3175,8.5075 251.73,9.14 252.39,9.14 C252.9675,9.14 253.3525,8.7 253.3525,8.095 C253.3525,7.38 252.885,6.9125 252.005,6.9125 C250.96,6.9125 250.0525,7.765 249.4475,8.755 C248.595,8.2875 247.66,8.0675 246.835,8.0675 L246.835,8.0675 Z M260.6125,21.02 C262.9225,21.02 264.6,19.5075 265.755,17.72 L265.5625,17.5825 C264.435,19.15 263.0325,20.3875 261.1075,20.3875 C258.5225,20.3875 256.79,18.1875 256.79,14.5575 L256.79,14.53 C256.79,14.2 256.79,13.8975 256.8175,13.5675 L265.7275,13.5675 C265.8925,10.57 264.0225,7.9575 260.695,7.9575 C257.395,7.9575 254.81,11.175 254.81,14.7225 C254.81,18.545 257.34,21.02 260.6125,21.02 L260.6125,21.02 Z M260.64,8.205 C263.06,8.205 263.9125,10.35 263.8025,13.265 L256.845,13.265 C257.12,10.075 258.495,8.205 260.64,8.205 L260.64,8.205 Z M271.97,21.02 C273.4825,21.02 274.5275,20.085 275.4625,18.38 L275.325,18.2975 C274.4175,19.7275 273.7025,20.305 272.795,20.305 C271.64,20.305 270.8975,19.3975 270.8975,17.7475 L270.8975,8.5625 L275.0225,8.5625 L275.0225,8.26 L270.8975,8.26 L270.8975,3.6125 L269.0275,4.52 L269.0275,8.205 L266.47,8.315 L266.47,8.5625 L269.0275,8.5625 L269.0275,17.6375 C269.0275,19.9475 270.265,21.02 271.97,21.02 L271.97,21.02 Z M287.7375,21.02 C289.25,21.02 290.295,20.085 291.23,18.38 L291.0925,18.2975 C290.185,19.7275 289.47,20.305 288.5625,20.305 C287.4075,20.305 286.665,19.3975 286.665,17.7475 L286.665,8.5625 L290.79,8.5625 L290.79,8.26 L286.665,8.26 L286.665,3.6125 L284.795,4.52 L284.795,8.205 L282.2375,8.315 L282.2375,8.5625 L284.795,8.5625 L284.795,17.6375 C284.795,19.9475 286.0325,21.02 287.7375,21.02 L287.7375,21.02 Z M291.615,20.7175 L297.555,20.7175 L297.555,20.58 C296.0975,20.525 295.6025,20.3875 295.6025,19.48 L295.6025,11.8625 C296.455,10.24 297.9125,9.0025 299.3425,9.0025 C301.1025,9.0025 301.7625,10.2675 301.7625,12.22 L301.7625,19.48 C301.7625,20.3875 301.2675,20.525 299.81,20.58 L299.81,20.7175 L305.695,20.7175 L305.695,20.58 C304.21,20.525 303.6325,20.3875 303.6325,19.48 L303.6325,11.78 C303.6325,9.3875 302.505,7.9575 300.305,7.9575 C298.38,7.9575 296.7025,9.525 295.6025,11.34 L295.6025,1 L291.505,1.11 L291.505,1.2475 C293.5125,1.4125 293.7325,1.66 293.7325,2.5125 L293.7325,19.48 C293.7325,20.415 293.155,20.525 291.615,20.58 L291.615,20.7175 Z M312.6525,21.02 C314.9625,21.02 316.64,19.5075 317.795,17.72 L317.6025,17.5825 C316.475,19.15 315.0725,20.3875 313.1475,20.3875 C310.5625,20.3875 308.83,18.1875 308.83,14.5575 L308.83,14.53 C308.83,14.2 308.83,13.8975 308.8575,13.5675 L317.7675,13.5675 C317.9325,10.57 316.0625,7.9575 312.735,7.9575 C309.435,7.9575 306.85,11.175 306.85,14.7225 C306.85,18.545 309.38,21.02 312.6525,21.02 L312.6525,21.02 Z M312.68,8.205 C315.1,8.205 315.9525,10.35 315.8425,13.265 L308.885,13.265 C309.16,10.075 310.535,8.205 312.68,8.205 L312.68,8.205 Z M326.5225,21.02 L326.66,21.02 L327.6225,20.0575 C328.53,20.5525 329.74,21.02 331.0875,21.02 C333.15,21.02 335.35,19.4525 335.35,17.115 C335.35,15.3275 334.2225,14.255 331.4725,13.43 C328.915,12.66 327.98,12.0275 327.98,10.625 C327.98,9.195 329.08,8.205 330.785,8.205 C332.49,8.205 333.2325,8.92 334.6625,11.945 L334.745,11.945 L334.745,7.9575 L334.6075,7.9575 L333.81,8.7275 C332.9575,8.2875 331.94,7.9575 330.8125,7.9575 C328.7775,7.9575 326.6325,9.635 326.6325,11.725 C326.6325,13.595 327.925,14.365 330.62,15.1625 C333.48,16.015 334.0025,16.7025 334.0025,18.16 C334.0025,19.755 332.875,20.7725 331.1425,20.7725 C328.915,20.7725 328.2275,19.92 326.605,16.565 L326.5225,16.565 L326.5225,21.02 Z M340.63,15.4925 L342.17,13.98 L345.7725,19.0675 C346.4875,20.0575 346.3775,20.4425 344.645,20.58 L344.645,20.7175 L350.42,20.7175 L350.42,20.58 C349.0725,20.4425 348.88,20.2775 347.6975,18.6825 L343.325,12.825 L345.2775,10.9 C347.3675,8.8375 348.0275,8.48 349.5125,8.3975 L349.5125,8.26 L344.205,8.26 L344.205,8.3975 C346.3225,8.5075 346.5425,9.1675 345.0575,10.68 L340.63,15.1625 L340.63,1 L336.5325,1.11 L336.5325,1.2475 C338.54,1.4125 338.76,1.66 338.76,2.5125 L338.76,19.48 C338.76,20.415 338.1825,20.525 336.6425,20.58 L336.6425,20.7175 L342.445,20.7175 L342.445,20.58 C341.125,20.525 340.63,20.3875 340.63,19.48 L340.63,15.4925 Z M353.28,5.3725 C354.0225,5.3725 354.6,4.74 354.6,3.9975 C354.6,3.255 354.0225,2.6225 353.28,2.6225 C352.5375,2.6225 351.96,3.255 351.96,3.9975 C351.96,4.74 352.5375,5.3725 353.28,5.3725 L353.28,5.3725 Z M350.2825,20.7175 L356.47,20.7175 L356.47,20.58 C354.9575,20.525 354.38,20.415 354.38,19.48 L354.38,8.095 L350.2825,8.26 L350.2825,8.3975 C352.29,8.5625 352.51,8.81 352.51,9.6625 L352.51,19.48 C352.51,20.415 351.8775,20.5525 350.2825,20.58 L350.2825,20.7175 Z M357.02,20.7175 L363.18,20.7175 L363.18,20.58 C361.585,20.5525 361.035,20.3875 361.035,19.48 L361.035,1 L356.9375,1.11 L356.9375,1.2475 C358.945,1.4125 359.165,1.66 359.165,2.5125 L359.165,19.48 C359.165,20.3875 358.615,20.5525 357.02,20.58 L357.02,20.7175 Z M363.565,20.7175 L369.725,20.7175 L369.725,20.58 C368.13,20.5525 367.58,20.3875 367.58,19.48 L367.58,1 L363.4825,1.11 L363.4825,1.2475 C365.49,1.4125 365.71,1.66 365.71,2.5125 L365.71,19.48 C365.71,20.3875 365.16,20.5525 363.565,20.58 L363.565,20.7175 Z M371.1825,21.02 L371.32,21.02 L372.2825,20.0575 C373.19,20.5525 374.4,21.02 375.7475,21.02 C377.81,21.02 380.01,19.4525 380.01,17.115 C380.01,15.3275 378.8825,14.255 376.1325,13.43 C373.575,12.66 372.64,12.0275 372.64,10.625 C372.64,9.195 373.74,8.205 375.445,8.205 C377.15,8.205 377.8925,8.92 379.3225,11.945 L379.405,11.945 L379.405,7.9575 L379.2675,7.9575 L378.47,8.7275 C377.6175,8.2875 376.6,7.9575 375.4725,7.9575 C373.4375,7.9575 371.2925,9.635 371.2925,11.725 C371.2925,13.595 372.585,14.365 375.28,15.1625 C378.14,16.015 378.6625,16.7025 378.6625,18.16 C378.6625,19.755 377.535,20.7725 375.8025,20.7725 C373.575,20.7725 372.8875,19.92 371.265,16.565 L371.1825,16.565 L371.1825,21.02 Z M1,51.7175 L7.05,51.7175 L7.05,51.58 C5.5925,51.525 5.0975,51.3875 5.0975,50.48 L5.0975,42.8625 C5.95,41.24 7.4075,40.0025 8.8375,40.0025 C10.5975,40.0025 11.2575,41.2675 11.2575,43.22 L11.2575,50.48 C11.2575,51.3875 10.7625,51.525 9.305,51.58 L9.305,51.7175 L15.19,51.7175 L15.19,51.58 C13.705,51.525 13.1275,51.3875 13.1275,50.48 L13.1275,42.78 C13.1275,40.3875 12,38.9575 9.8,38.9575 C7.875,38.9575 6.17,40.5525 5.07,42.3675 L5.07,39.095 L1,39.26 L1,39.3975 C3.0075,39.5625 3.2275,39.81 3.2275,40.6625 L3.2275,50.48 C3.2275,51.415 2.595,51.5525 1,51.58 L1,51.7175 Z M22.0375,52.02 C24.3475,52.02 26.025,50.5075 27.18,48.72 L26.9875,48.5825 C25.86,50.15 24.4575,51.3875 22.5325,51.3875 C19.9475,51.3875 18.215,49.1875 18.215,45.5575 L18.215,45.53 C18.215,45.2 18.215,44.8975 18.2425,44.5675 L27.1525,44.5675 C27.3175,41.57 25.4475,38.9575 22.12,38.9575 C18.82,38.9575 16.235,42.175 16.235,45.7225 C16.235,49.545 18.765,52.02 22.0375,52.02 L22.0375,52.02 Z M22.065,39.205 C24.485,39.205 25.3375,41.35 25.2275,44.265 L18.27,44.265 C18.545,41.075 19.92,39.205 22.065,39.205 L22.065,39.205 Z M34.935,52.02 C37.245,52.02 38.9225,50.5075 40.0775,48.72 L39.885,48.5825 C38.7575,50.15 37.355,51.3875 35.43,51.3875 C32.845,51.3875 31.1125,49.1875 31.1125,45.5575 L31.1125,45.53 C31.1125,45.2 31.1125,44.8975 31.14,44.5675 L40.05,44.5675 C40.215,41.57 38.345,38.9575 35.0175,38.9575 C31.7175,38.9575 29.1325,42.175 29.1325,45.7225 C29.1325,49.545 31.6625,52.02 34.935,52.02 L34.935,52.02 Z M34.9625,39.205 C37.3825,39.205 38.235,41.35 38.125,44.265 L31.1675,44.265 C31.4425,41.075 32.8175,39.205 34.9625,39.205 L34.9625,39.205 Z M48.2825,51.9375 C49.9875,51.9375 51.1975,51.0575 52.4625,49.71 L52.4625,51.8 L56.5325,51.7175 L56.5325,51.58 C54.9375,51.5525 54.305,51.415 54.305,50.48 L54.305,32 L50.2075,32.11 L50.2075,32.2475 C52.215,32.4125 52.435,32.66 52.435,33.5125 L52.435,40.1675 C51.61,39.5625 50.4,39.04 48.9425,39.04 C45.8625,39.04 43.1125,41.7075 43.1125,45.75 C43.1125,49.3525 45.285,51.9375 48.2825,51.9375 L48.2825,51.9375 Z M49.2175,51.085 C46.715,51.085 45.2025,48.665 45.2025,45.53 C45.2025,41.79 46.5775,39.315 48.9425,39.315 C50.565,39.315 51.8575,40.03 52.435,41.46 L52.435,49.4075 C51.5275,50.425 50.345,51.085 49.2175,51.085 L49.2175,51.085 Z M63.4625,52.02 C65.7725,52.02 67.45,50.5075 68.605,48.72 L68.4125,48.5825 C67.285,50.15 65.8825,51.3875 63.9575,51.3875 C61.3725,51.3875 59.64,49.1875 59.64,45.5575 L59.64,45.53 C59.64,45.2 59.64,44.8975 59.6675,44.5675 L68.5775,44.5675 C68.7425,41.57 66.8725,38.9575 63.545,38.9575 C60.245,38.9575 57.66,42.175 57.66,45.7225 C57.66,49.545 60.19,52.02 63.4625,52.02 L63.4625,52.02 Z M63.49,39.205 C65.91,39.205 66.7625,41.35 66.6525,44.265 L59.695,44.265 C59.97,41.075 61.345,39.205 63.49,39.205 L63.49,39.205 Z M75.81,51.9375 C77.515,51.9375 78.725,51.0575 79.99,49.71 L79.99,51.8 L84.06,51.7175 L84.06,51.58 C82.465,51.5525 81.8325,51.415 81.8325,50.48 L81.8325,32 L77.735,32.11 L77.735,32.2475 C79.7425,32.4125 79.9625,32.66 79.9625,33.5125 L79.9625,40.1675 C79.1375,39.5625 77.9275,39.04 76.47,39.04 C73.39,39.04 70.64,41.7075 70.64,45.75 C70.64,49.3525 72.8125,51.9375 75.81,51.9375 L75.81,51.9375 Z M76.745,51.085 C74.2425,51.085 72.73,48.665 72.73,45.53 C72.73,41.79 74.105,39.315 76.47,39.315 C78.0925,39.315 79.385,40.03 79.9625,41.46 L79.9625,49.4075 C79.055,50.425 77.8725,51.085 76.745,51.085 L76.745,51.085 Z M95.225,52.02 C96.7375,52.02 97.7825,51.085 98.7175,49.38 L98.58,49.2975 C97.6725,50.7275 96.9575,51.305 96.05,51.305 C94.895,51.305 94.1525,50.3975 94.1525,48.7475 L94.1525,39.5625 L98.2775,39.5625 L98.2775,39.26 L94.1525,39.26 L94.1525,34.6125 L92.2825,35.52 L92.2825,39.205 L89.725,39.315 L89.725,39.5625 L92.2825,39.5625 L92.2825,48.6375 C92.2825,50.9475 93.52,52.02 95.225,52.02 L95.225,52.02 Z M105.62,52.02 C108.7,52.02 111.725,49.27 111.725,45.4475 C111.725,41.5975 108.8375,38.9575 105.6475,38.9575 C102.5675,38.9575 99.5425,41.7075 99.5425,45.53 C99.5425,49.38 102.43,52.02 105.62,52.02 L105.62,52.02 Z M105.7575,51.8 C103.42,51.8 101.605,50.0125 101.605,45.475 C101.605,40.9375 103.2,39.1775 105.51,39.1775 C107.8475,39.1775 109.6625,40.965 109.6625,45.5025 C109.6625,50.04 108.0675,51.8 105.7575,51.8 L105.7575,51.8 Z M127.6025,51.7175 L133.3775,51.7175 L133.3775,51.58 C131.92,51.525 131.425,51.3875 131.425,50.48 L131.425,42.835 C132.3875,41.075 133.735,40.0025 135.0275,40.0025 C136.705,40.0025 137.31,41.2675 137.31,43.1375 L137.31,50.48 C137.31,51.3875 136.815,51.525 135.3575,51.58 L135.3575,51.7175 L141.2425,51.7175 L141.2425,51.58 C139.7575,51.525 139.18,51.3875 139.18,50.48 L139.18,42.6975 C139.18,40.3875 138.1075,38.9575 135.99,38.9575 C134.23,38.9575 132.635,40.36 131.425,42.34 C131.315,40.1125 130.1325,38.9575 128.235,38.9575 C126.42,38.9575 124.7425,40.5525 123.6425,42.3675 L123.6425,39.095 L119.5725,39.26 L119.5725,39.3975 C121.58,39.5625 121.8,39.81 121.8,40.6625 L121.8,50.48 C121.8,51.415 121.1675,51.5525 119.5725,51.58 L119.5725,51.7175 L125.6225,51.7175 L125.6225,51.58 C124.165,51.525 123.67,51.3875 123.67,50.48 L123.67,42.8625 C124.5225,41.24 125.8975,40.0025 127.2725,40.0025 C128.95,40.0025 129.555,41.2675 129.555,43.1375 L129.555,50.48 C129.555,51.3875 129.06,51.525 127.6025,51.58 L127.6025,51.7175 Z M145.6975,51.8825 C147.32,51.8825 148.75,51.0025 150.015,49.5725 L150.0425,49.5725 C150.0425,51.25 150.8675,51.8275 152.05,51.8275 C152.82,51.8275 153.59,51.525 154.2775,51.03 L154.2225,50.9475 C152.5725,51.635 151.885,51.1675 151.885,49.545 L151.885,42.56 C151.885,40.1125 150.125,39.0675 147.4575,39.0675 C145.175,39.0675 143.1125,40.1675 143.1125,41.735 C143.1125,42.4225 143.525,43.0275 144.35,43.0275 C145.0375,43.0275 145.56,42.5325 145.56,41.735 C145.56,41.13 145.175,40.6075 144.3775,40.47 C144.735,39.92 145.6425,39.3975 147.045,39.3975 C149.1075,39.3975 150.015,40.25 150.015,42.78 L150.015,44.76 C147.9525,45.0625 145.7525,45.3925 144.24,46.2175 C143.085,46.85 142.425,47.7575 142.425,48.995 C142.425,50.48 143.525,51.8825 145.6975,51.8825 L145.6975,51.8825 Z M146.605,51.03 C145.2025,51.03 144.3775,50.2325 144.3775,48.6375 C144.3775,46.4375 145.395,45.64 150.015,45.035 L150.015,49.215 C149.1075,50.315 147.98,51.03 146.605,51.03 L146.605,51.03 Z M158.3475,46.4925 L159.8875,44.98 L163.49,50.0675 C164.205,51.0575 164.095,51.4425 162.3625,51.58 L162.3625,51.7175 L168.1375,51.7175 L168.1375,51.58 C166.79,51.4425 166.5975,51.2775 165.415,49.6825 L161.0425,43.825 L162.995,41.9 C165.085,39.8375 165.745,39.48 167.23,39.3975 L167.23,39.26 L161.9225,39.26 L161.9225,39.3975 C164.04,39.5075 164.26,40.1675 162.775,41.68 L158.3475,46.1625 L158.3475,32 L154.25,32.11 L154.25,32.2475 C156.2575,32.4125 156.4775,32.66 156.4775,33.5125 L156.4775,50.48 C156.4775,51.415 155.9,51.525 154.36,51.58 L154.36,51.7175 L160.1625,51.7175 L160.1625,51.58 C158.8425,51.525 158.3475,51.3875 158.3475,50.48 L158.3475,46.4925 Z M175.215,52.02 C177.525,52.02 179.2025,50.5075 180.3575,48.72 L180.165,48.5825 C179.0375,50.15 177.635,51.3875 175.71,51.3875 C173.125,51.3875 171.3925,49.1875 171.3925,45.5575 L171.3925,45.53 C171.3925,45.2 171.3925,44.8975 171.42,44.5675 L180.33,44.5675 C180.495,41.57 178.625,38.9575 175.2975,38.9575 C171.9975,38.9575 169.4125,42.175 169.4125,45.7225 C169.4125,49.545 171.9425,52.02 175.215,52.02 L175.215,52.02 Z M175.2425,39.205 C177.6625,39.205 178.515,41.35 178.405,44.265 L171.4475,44.265 C171.7225,41.075 173.0975,39.205 175.2425,39.205 L175.2425,39.205 Z M192.3475,52.02 C193.86,52.02 194.905,51.085 195.84,49.38 L195.7025,49.2975 C194.795,50.7275 194.08,51.305 193.1725,51.305 C192.0175,51.305 191.275,50.3975 191.275,48.7475 L191.275,39.5625 L195.4,39.5625 L195.4,39.26 L191.275,39.26 L191.275,34.6125 L189.405,35.52 L189.405,39.205 L186.8475,39.315 L186.8475,39.5625 L189.405,39.5625 L189.405,48.6375 C189.405,50.9475 190.6425,52.02 192.3475,52.02 L192.3475,52.02 Z M196.225,51.7175 L202.165,51.7175 L202.165,51.58 C200.7075,51.525 200.2125,51.3875 200.2125,50.48 L200.2125,42.8625 C201.065,41.24 202.5225,40.0025 203.9525,40.0025 C205.7125,40.0025 206.3725,41.2675 206.3725,43.22 L206.3725,50.48 C206.3725,51.3875 205.8775,51.525 204.42,51.58 L204.42,51.7175 L210.305,51.7175 L210.305,51.58 C208.82,51.525 208.2425,51.3875 208.2425,50.48 L208.2425,42.78 C208.2425,40.3875 207.115,38.9575 204.915,38.9575 C202.99,38.9575 201.3125,40.525 200.2125,42.34 L200.2125,32 L196.115,32.11 L196.115,32.2475 C198.1225,32.4125 198.3425,32.66 198.3425,33.5125 L198.3425,50.48 C198.3425,51.415 197.765,51.525 196.225,51.58 L196.225,51.7175 Z M217.2625,52.02 C219.5725,52.02 221.25,50.5075 222.405,48.72 L222.2125,48.5825 C221.085,50.15 219.6825,51.3875 217.7575,51.3875 C215.1725,51.3875 213.44,49.1875 213.44,45.5575 L213.44,45.53 C213.44,45.2 213.44,44.8975 213.4675,44.5675 L222.3775,44.5675 C222.5425,41.57 220.6725,38.9575 217.345,38.9575 C214.045,38.9575 211.46,42.175 211.46,45.7225 C211.46,49.545 213.99,52.02 217.2625,52.02 L217.2625,52.02 Z M217.29,39.205 C219.71,39.205 220.5625,41.35 220.4525,44.265 L213.495,44.265 C213.77,41.075 215.145,39.205 217.29,39.205 L217.29,39.205 Z M238.255,51.7175 L244.03,51.7175 L244.03,51.58 C242.5725,51.525 242.0775,51.3875 242.0775,50.48 L242.0775,42.835 C243.04,41.075 244.3875,40.0025 245.68,40.0025 C247.3575,40.0025 247.9625,41.2675 247.9625,43.1375 L247.9625,50.48 C247.9625,51.3875 247.4675,51.525 246.01,51.58 L246.01,51.7175 L251.895,51.7175 L251.895,51.58 C250.41,51.525 249.8325,51.3875 249.8325,50.48 L249.8325,42.6975 C249.8325,40.3875 248.76,38.9575 246.6425,38.9575 C244.8825,38.9575 243.2875,40.36 242.0775,42.34 C241.9675,40.1125 240.785,38.9575 238.8875,38.9575 C237.0725,38.9575 235.395,40.5525 234.295,42.3675 L234.295,39.095 L230.225,39.26 L230.225,39.3975 C232.2325,39.5625 232.4525,39.81 232.4525,40.6625 L232.4525,50.48 C232.4525,51.415 231.82,51.5525 230.225,51.58 L230.225,51.7175 L236.275,51.7175 L236.275,51.58 C234.8175,51.525 234.3225,51.3875 234.3225,50.48 L234.3225,42.8625 C235.175,41.24 236.55,40.0025 237.925,40.0025 C239.6025,40.0025 240.2075,41.2675 240.2075,43.1375 L240.2075,50.48 C240.2075,51.3875 239.7125,51.525 238.255,51.58 L238.255,51.7175 Z M259.0175,52.02 C262.0975,52.02 265.1225,49.27 265.1225,45.4475 C265.1225,41.5975 262.235,38.9575 259.045,38.9575 C255.965,38.9575 252.94,41.7075 252.94,45.53 C252.94,49.38 255.8275,52.02 259.0175,52.02 L259.0175,52.02 Z M259.155,51.8 C256.8175,51.8 255.0025,50.0125 255.0025,45.475 C255.0025,40.9375 256.5975,39.1775 258.9075,39.1775 C261.245,39.1775 263.06,40.965 263.06,45.5025 C263.06,50.04 261.465,51.8 259.155,51.8 L259.155,51.8 Z M267.3775,52.02 L267.515,52.02 L268.4775,51.0575 C269.385,51.5525 270.595,52.02 271.9425,52.02 C274.005,52.02 276.205,50.4525 276.205,48.115 C276.205,46.3275 275.0775,45.255 272.3275,44.43 C269.77,43.66 268.835,43.0275 268.835,41.625 C268.835,40.195 269.935,39.205 271.64,39.205 C273.345,39.205 274.0875,39.92 275.5175,42.945 L275.6,42.945 L275.6,38.9575 L275.4625,38.9575 L274.665,39.7275 C273.8125,39.2875 272.795,38.9575 271.6675,38.9575 C269.6325,38.9575 267.4875,40.635 267.4875,42.725 C267.4875,44.595 268.78,45.365 271.475,46.1625 C274.335,47.015 274.8575,47.7025 274.8575,49.16 C274.8575,50.755 273.73,51.7725 271.9975,51.7725 C269.77,51.7725 269.0825,50.92 267.46,47.565 L267.3775,47.565 L267.3775,52.02 Z M283.6125,52.02 C285.125,52.02 286.17,51.085 287.105,49.38 L286.9675,49.2975 C286.06,50.7275 285.345,51.305 284.4375,51.305 C283.2825,51.305 282.54,50.3975 282.54,48.7475 L282.54,39.5625 L286.665,39.5625 L286.665,39.26 L282.54,39.26 L282.54,34.6125 L280.67,35.52 L280.67,39.205 L278.1125,39.315 L278.1125,39.5625 L280.67,39.5625 L280.67,48.6375 C280.67,50.9475 281.9075,52.02 283.6125,52.02 L283.6125,52.02 Z M299.92,52.02 C303,52.02 306.025,49.27 306.025,45.4475 C306.025,41.5975 303.1375,38.9575 299.9475,38.9575 C296.8675,38.9575 293.8425,41.7075 293.8425,45.53 C293.8425,49.38 296.73,52.02 299.92,52.02 L299.92,52.02 Z M300.0575,51.8 C297.72,51.8 295.905,50.0125 295.905,45.475 C295.905,40.9375 297.5,39.1775 299.81,39.1775 C302.1475,39.1775 303.9625,40.965 303.9625,45.5025 C303.9625,50.04 302.3675,51.8 300.0575,51.8 L300.0575,51.8 Z M307.4825,51.7175 L314.275,51.7175 L314.275,51.58 C312.13,51.58 311.58,51.415 311.58,50.48 L311.58,39.5625 L315.3475,39.5625 L315.3475,39.26 L311.58,39.26 L311.58,36.345 C311.58,34.2 311.9925,33.1275 312.4875,32.6325 C312.845,32.275 313.285,32.0825 314,32.0825 C314.55,32.0825 315.0725,32.2475 315.375,32.4675 C314.935,32.7425 314.6325,33.265 314.6325,33.8425 C314.6325,34.5025 315.1825,35.0525 315.8975,35.0525 C316.475,35.0525 317.08,34.585 317.08,33.76 C317.08,32.715 315.8975,31.835 314.11,31.835 C313.0375,31.835 312.075,32.275 311.25,33.1 C310.205,34.145 309.71,35.4925 309.71,38.0225 L309.71,39.205 L307.235,39.315 L307.235,39.5625 L309.71,39.5625 L309.71,50.48 C309.71,51.415 309.0775,51.5525 307.4825,51.58 L307.4825,51.7175 Z M326.265,52.02 C327.7775,52.02 328.8225,51.085 329.7575,49.38 L329.62,49.2975 C328.7125,50.7275 327.9975,51.305 327.09,51.305 C325.935,51.305 325.1925,50.3975 325.1925,48.7475 L325.1925,39.5625 L329.3175,39.5625 L329.3175,39.26 L325.1925,39.26 L325.1925,34.6125 L323.3225,35.52 L323.3225,39.205 L320.765,39.315 L320.765,39.5625 L323.3225,39.5625 L323.3225,48.6375 C323.3225,50.9475 324.56,52.02 326.265,52.02 L326.265,52.02 Z M331.1425,51.7175 L337.0825,51.7175 L337.0825,51.58 C335.625,51.525 335.13,51.3875 335.13,50.48 L335.13,42.8625 C335.9825,41.24 337.44,40.0025 338.87,40.0025 C340.63,40.0025 341.29,41.2675 341.29,43.22 L341.29,50.48 C341.29,51.3875 340.795,51.525 339.3375,51.58 L339.3375,51.7175 L345.2225,51.7175 L345.2225,51.58 C343.7375,51.525 343.16,51.3875 343.16,50.48 L343.16,42.78 C343.16,40.3875 342.0325,38.9575 339.8325,38.9575 C337.9075,38.9575 336.23,40.525 335.13,42.34 L335.13,32 L331.0325,32.11 L331.0325,32.2475 C333.04,32.4125 333.26,32.66 333.26,33.5125 L333.26,50.48 C333.26,51.415 332.6825,51.525 331.1425,51.58 L331.1425,51.7175 Z M352.18,52.02 C354.49,52.02 356.1675,50.5075 357.3225,48.72 L357.13,48.5825 C356.0025,50.15 354.6,51.3875 352.675,51.3875 C350.09,51.3875 348.3575,49.1875 348.3575,45.5575 L348.3575,45.53 C348.3575,45.2 348.3575,44.8975 348.385,44.5675 L357.295,44.5675 C357.46,41.57 355.59,38.9575 352.2625,38.9575 C348.9625,38.9575 346.3775,42.175 346.3775,45.7225 C346.3775,49.545 348.9075,52.02 352.18,52.02 L352.18,52.02 Z M352.2075,39.205 C354.6275,39.205 355.48,41.35 355.37,44.265 L348.4125,44.265 C348.6875,41.075 350.0625,39.205 352.2075,39.205 L352.2075,39.205 Z M374.0425,42.89 L371.1825,49.545 L371.1275,49.545 L367.855,41.185 C367.7175,40.8275 367.69,40.5525 367.69,40.415 C367.69,39.81 368.13,39.4525 369.615,39.37 L369.615,39.26 L363.5925,39.26 L363.5925,39.3975 C365.215,39.5075 365.49,39.8925 366.04,41.295 L370.275,52.1575 L370.4125,52.1575 L374.18,43.2475 L377.48,52.1575 L377.6725,52.1575 L381.4675,41.845 C382.21,39.81 382.485,39.6175 384.0525,39.3975 L384.0525,39.26 L379.9275,39.26 L379.9275,39.37 C381.0825,39.535 381.495,39.8375 381.495,40.4425 C381.495,40.745 381.385,41.13 381.22,41.625 L378.3325,49.49 L378.2775,49.49 L375.2525,41.185 C375.1425,40.8825 375.0875,40.6075 375.0875,40.47 C375.0875,39.81 375.6375,39.4525 377.095,39.37 L377.095,39.26 L371.1825,39.26 L371.1825,39.37 C372.6675,39.48 372.9425,39.8375 373.465,41.295 L374.0425,42.89 Z M390.8,52.02 C393.11,52.02 394.7875,50.5075 395.9425,48.72 L395.75,48.5825 C394.6225,50.15 393.22,51.3875 391.295,51.3875 C388.71,51.3875 386.9775,49.1875 386.9775,45.5575 L386.9775,45.53 C386.9775,45.2 386.9775,44.8975 387.005,44.5675 L395.915,44.5675 C396.08,41.57 394.21,38.9575 390.8825,38.9575 C387.5825,38.9575 384.9975,42.175 384.9975,45.7225 C384.9975,49.545 387.5275,52.02 390.8,52.02 L390.8,52.02 Z M390.8275,39.205 C393.2475,39.205 394.1,41.35 393.99,44.265 L387.0325,44.265 C387.3075,41.075 388.6825,39.205 390.8275,39.205 L390.8275,39.205 Z M398.9125,52.13 L399.0225,52.13 L400.2875,50.7275 C401.3875,51.3875 402.9275,51.9375 404.4125,51.9375 C407.4925,51.9375 410.2425,49.2975 410.2425,45.255 C410.2425,41.6525 408.07,39.04 405.0725,39.04 C403.3675,39.04 402.1575,39.92 400.92,41.24 L400.92,32 L396.8225,32.11 L396.8225,32.2475 C398.83,32.4125 399.05,32.66 399.05,33.5125 L399.05,49.71 L398.9125,52.13 Z M404.4125,51.6625 C402.79,51.6625 401.4975,50.9475 400.92,49.5175 L400.92,41.57 C401.8275,40.5525 403.01,39.8925 404.1375,39.8925 C406.64,39.8925 408.1525,42.34 408.1525,45.475 C408.1525,49.215 406.7775,51.6625 404.4125,51.6625 L404.4125,51.6625 Z M413.24,52.1575 C414.01,52.1575 414.6425,51.5525 414.6425,50.755 C414.6425,50.0125 414.01,49.4075 413.24,49.4075 C412.47,49.4075 411.8375,50.0125 411.8375,50.81 C411.8375,51.5525 412.47,52.1575 413.24,52.1575 L413.24,52.1575 Z"></path>
    </g>
</svg>