<?xml version="1.0" encoding="UTF-8" standalone="no"?>
<svg width="397px" height="129px" viewBox="0 0 397 129" version="1.1" xmlns="http://www.w3.org/2000/svg" xmlns:xlink="http://www.w3.org/1999/xlink">
    <g id="google-logo" shape-rendering="auto">
        <path d="M50.5216988,58.9741176 L50.5216988,45.5917647 L97.2420077,45.5917647 C97.7325097,48.0388235 97.9777606,51.0211765 97.9777606,54.2023529 C97.9777606,64.48 95.1573745,77.2047059 86.0830888,86.2588235 C77.2540541,95.4352941 65.9725097,100.329412 51.0122008,100.329412 C23.2988417,100.329412 0,77.8164706 0,50.1647059 C0,22.5129412 23.2988417,0 51.0122008,0 C66.3403861,0 77.2540541,5.99529412 85.4699614,13.8258824 L75.7825483,23.4917647 C69.8965251,17.9858824 61.9258687,13.7035294 51.0122008,13.7035294 C30.7789961,13.7035294 14.9603089,29.9764706 14.9603089,50.1647059 C14.9603089,70.3529412 30.7789961,86.6258824 51.0122008,86.6258824 C64.1331274,86.6258824 71.6132819,81.3647059 76.3956757,76.5929412 C80.3196911,72.6776471 82.956139,66.6823529 83.9371429,58.9741176 L50.5216988,58.9741176 L50.5216988,58.9741176 Z" id="google_g" fill="#4285F4"></path>
        <path d="M167.690347,67.4776471 C167.690347,86.0752941 153.097915,99.7788235 135.194595,99.7788235 C117.291274,99.7788235 102.698842,86.0752941 102.698842,67.4776471 C102.698842,48.7576471 117.291274,35.1764706 135.194595,35.1764706 C153.097915,35.1764706 167.690347,48.7576471 167.690347,67.4776471 L167.690347,67.4776471 Z M153.465792,67.4776471 C153.465792,55.8541176 145.004633,47.9011765 135.194595,47.9011765 C125.384556,47.9011765 116.923398,55.8541176 116.923398,67.4776471 C116.923398,78.9788235 125.384556,87.0541176 135.194595,87.0541176 C145.004633,87.0541176 153.465792,78.9788235 153.465792,67.4776471 L153.465792,67.4776471 Z" id="google_o_r" fill="#EA4335"></path>
        <path d="M238.2,67.4776471 C238.2,86.0752941 223.607568,99.7788235 205.704247,99.7788235 C187.800927,99.7788235 173.208494,86.0752941 173.208494,67.4776471 C173.208494,48.7576471 187.800927,35.1764706 205.704247,35.1764706 C223.607568,35.1764706 238.2,48.7576471 238.2,67.4776471 L238.2,67.4776471 Z M223.975444,67.4776471 C223.975444,55.8541176 215.514286,47.9011765 205.704247,47.9011765 C195.894208,47.9011765 187.43305,55.8541176 187.43305,67.4776471 C187.43305,78.9788235 195.894208,87.0541176 205.704247,87.0541176 C215.514286,87.0541176 223.975444,78.9788235 223.975444,67.4776471 L223.975444,67.4776471 Z" id="google_o_y" fill="#FBBC05"></path>
        <path d="M305.766641,37.1341176 L305.766641,95.1294118 C305.766641,118.988235 291.66471,128.776471 274.987645,128.776471 C259.291583,128.776471 249.849421,118.254118 246.293282,109.689412 L258.678456,104.550588 C260.885714,109.811765 266.281236,116.051765 274.987645,116.051765 C285.656062,116.051765 292.277838,109.444706 292.277838,97.0870588 L292.277838,92.4376471 L291.787336,92.4376471 C288.599073,96.3529412 282.467799,99.7788235 274.742394,99.7788235 C258.55583,99.7788235 243.718147,85.7082353 243.718147,67.6 C243.718147,49.3694118 258.55583,35.1764706 274.742394,35.1764706 C282.467799,35.1764706 288.599073,38.6023529 291.787336,42.3952941 L292.277838,42.3952941 L292.277838,37.1341176 L305.766641,37.1341176 L305.766641,37.1341176 Z M293.258842,67.6 C293.258842,56.2211765 285.656062,47.9011765 275.968649,47.9011765 C266.15861,47.9011765 257.942703,56.2211765 257.942703,67.6 C257.942703,78.8564706 266.15861,87.0541176 275.968649,87.0541176 C285.656062,87.0541176 293.258842,78.8564706 293.258842,67.6 L293.258842,67.6 Z" id="google_g_2" fill="#4285F4"></path>
        <path d="M329.985174,3.05882353 L329.985174,97.8823529 L315.760618,97.8823529 L315.760618,3.05882353 L329.985174,3.05882353 L329.985174,3.05882353 Z" id="google_l" fill="#34A853"></path>
        <path d="M385.289266,78.1223529 L396.32556,85.4635294 C392.769421,90.7247059 384.185637,99.7788235 369.347954,99.7788235 C350.954131,99.7788235 337.220077,85.5858824 337.220077,67.4776471 C337.220077,48.2682353 351.076757,35.1764706 367.753822,35.1764706 C384.553514,35.1764706 392.769421,48.5129412 395.467181,55.7317647 L396.938687,59.4023529 L353.651892,77.2658824 C356.96278,83.7505882 362.11305,87.0541176 369.347954,87.0541176 C376.582857,87.0541176 381.610502,83.5058824 385.289266,78.1223529 L385.289266,78.1223529 Z M351.322008,66.4988235 L380.261622,54.5082353 C378.66749,50.4705882 373.885097,47.6564706 368.244324,47.6564706 C361.009421,47.6564706 350.954131,54.0188235 351.322008,66.4988235 L351.322008,66.4988235 Z" id="google_e" fill="#EA4335"></path>
    </g>
</svg>