<?xml version="1.0" encoding="UTF-8" standalone="no"?>
<svg width="120px" height="120px" viewBox="0 0 120 120" version="1.1" xmlns="http://www.w3.org/2000/svg" xmlns:xlink="http://www.w3.org/1999/xlink">
    <g id="replay" fill="#646464">
        <path d="M90.8594378,30 L81.2752743,39.1049553 C75.5247763,33.0349851 68.3366537,30 59.7109066,30 C51.5643677,30 44.6158492,32.9551171 38.8653512,38.8653512 C32.9551171,44.6158492 30,51.5643677 30,59.7109066 C30,68.0171816 32.9551171,75.0455681 38.8653512,80.7960662 C44.6158492,86.7063003 51.5643677,89.6614173 59.7109066,89.6614173 C67.8574455,89.6614173 74.9657001,86.7861683 81.0356702,81.0356702 L76.0039844,76.0039844 C71.3716388,80.316858 65.9406128,82.4732948 59.7109066,82.4732948 C53.4812004,82.4732948 48.2099105,80.23699 43.897037,75.7643804 C39.4244274,71.4515068 37.1881226,66.1003489 37.1881226,59.7109066 C37.1881226,53.4812004 39.4244274,48.2099105 43.897037,43.897037 C48.2099105,39.4244274 53.4812004,37.1881226 59.7109066,37.1881226 C66.260085,37.1881226 71.6911109,39.5042954 76.0039844,44.1366411 L67.1386333,52.522784 L90.8594378,52.522784 L90.8594378,30 L90.8594378,30 Z"></path>
    </g>
</svg>